<?xml version="1.0" encoding="UTF-8"?><svg id="Layer_1" xmlns="http://www.w3.org/2000/svg" viewBox="0 0 32 32"><defs><style>.cls-1{fill:#f8761f;}.cls-1,.cls-2{stroke-width:0px;}.cls-2{fill:#fff;}</style></defs><rect class="cls-1" width="32" height="32"/><path class="cls-2" d="m27.43,15.32c-.6-1.04-1.46-1.88-2.52-2.51-.8-.46-1.62-.76-2.55-.88v-3.31c.93-.4,1.51-1.27,1.51-2.29,0-1.39-1.11-2.52-2.5-2.52s-2.52,1.13-2.52,2.52c0,1.02.54,1.89,1.47,2.29v3.31c-.74.11-1.51.34-2.22.7-1.44-1.09-6.16-4.68-8.92-6.78.07-.24.12-.48.12-.73,0-1.54-1.25-2.79-2.79-2.79s-2.79,1.25-2.79,2.79,1.25,2.79,2.79,2.79c.53,0,1.01-.15,1.43-.4l.58.44,8.01,5.77c-.42.39-.82.83-1.13,1.33-.64,1.01-1.03,2.12-1.03,3.34v.25c0,.85.16,1.66.44,2.41.24.66.6,1.26,1.04,1.8l-2.66,2.66c-.79-.29-1.67-.1-2.26.5-.4.4-.63.95-.63,1.52,0,.58.23,1.12.63,1.52s.95.63,1.52.63c.57,0,1.12-.23,1.52-.63.57-.57.77-1.4.53-2.17l2.75-2.75c.38.26.78.48,1.22.67.86.37,1.81.6,2.85.6h.19c1.15,0,2.24-.27,3.26-.82,1.08-.58,1.92-1.39,2.55-2.4.64-1.02.99-2.15.99-3.4v-.06c0-1.22-.28-2.35-.88-3.39h0Zm-3.35,5.76c-.75.83-1.6,1.34-2.57,1.34h-.16c-.55,0-1.09-.15-1.62-.43-.6-.3-1.05-.74-1.42-1.3-.38-.54-.59-1.13-.59-1.76v-.19c0-.62.12-1.2.42-1.76.32-.6.75-1.08,1.32-1.45.56-.37,1.16-.55,1.84-.55h.06c.61,0,1.18.12,1.73.4.55.3,1.01.7,1.36,1.23.34.53.54,1.11.61,1.73,0,.13.02.26.02.39,0,.85-.33,1.64-.97,2.35h0Z"/></svg>